<?xml version="1.0" encoding="UTF-8"?>
<svg version="1.1" xmlns="http://www.w3.org/2000/svg" width="510" height="72">
<path d="M0 0 C8.45526343 5.98914493 14.35025668 13.44689003 16.41796875 23.71875 C17.6620005 33.94198125 15.68267353 43.21852819 9.625 51.6484375 C3.31615434 58.99749969 -4.10514838 63.20950166 -13.8359375 64.01171875 C-26.09195144 64.05025967 -34.21309139 62.41493078 -43.1875 53.7109375 C-49.28780715 46.54739599 -52.96019237 37.69531747 -52.5234375 28.1875 C-50.9304016 16.44349113 -46.41718661 8.36663329 -37.0703125 1.0546875 C-26.17027812 -6.24027714 -11.3608732 -6.69480028 0 0 Z M-31.1875 9.7109375 C-31.1875 22.2509375 -31.1875 34.7909375 -31.1875 47.7109375 C-29.2075 47.7109375 -27.2275 47.7109375 -25.1875 47.7109375 C-25.1875 40.4509375 -25.1875 33.1909375 -25.1875 25.7109375 C-19.57211538 31.32632212 -19.57211538 31.32632212 -17.46875 33.6484375 C-17.01113281 34.15117188 -16.55351562 34.65390625 -16.08203125 35.171875 C-15.15234375 36.19791667 -14.22265625 37.22395833 -13.29296875 38.25 C-10.33985229 41.49426879 -7.31234612 44.631379 -4.1875 47.7109375 C-4.01263605 28.68755885 -4.01263605 28.68755885 -5.1875 9.7109375 C-6.8375 9.7109375 -8.4875 9.7109375 -10.1875 9.7109375 C-10.1875 17.3009375 -10.1875 24.8909375 -10.1875 32.7109375 C-15.80480769 27.09362981 -15.80480769 27.09362981 -18.16015625 24.30078125 C-18.66740234 23.70330078 -19.17464844 23.10582031 -19.69726562 22.49023438 C-20.20966797 21.88244141 -20.72207031 21.27464844 -21.25 20.6484375 C-22.28093448 19.42701825 -23.31345023 18.20693165 -24.34765625 16.98828125 C-24.79761963 16.45452881 -25.24758301 15.92077637 -25.71118164 15.37084961 C-27.45581893 13.40925065 -29.33120938 11.56722812 -31.1875 9.7109375 Z " fill="#FA2F2F" transform="translate(379.1875,5.2890625)"/>
<path d="M0 0 C3 1 3 1 4.7175293 4.37060547 C5.34809294 5.86459532 5.96615541 7.36389938 6.57421875 8.8671875 C6.90291458 9.65771515 7.23161041 10.4482428 7.57026672 11.26272583 C8.26372481 12.9368364 8.95183311 14.61317141 9.63500977 16.29150391 C10.68237587 18.86242204 11.74690997 21.42568517 12.81445312 23.98828125 C13.48540216 25.61415984 14.15535748 27.24044893 14.82421875 28.8671875 C15.14291428 29.63602264 15.4616098 30.40485779 15.78996277 31.19699097 C18 36.65153302 18 36.65153302 18 40 C15.36 40 12.72 40 10 40 C9.34 38.02 8.68 36.04 8 34 C3.71 34 -0.58 34 -5 34 C-5.66 35.98 -6.32 37.96 -7 40 C-9.97 40 -12.94 40 -16 40 C-11.10954964 26.48168194 -5.58945165 13.24219049 0 0 Z M1 18 C-1.29045014 22.81209901 -1.29045014 22.81209901 -2 28 C0.31 28 2.62 28 5 28 C4.01 24.7 3.02 21.4 2 18 C1.67 18 1.34 18 1 18 Z " fill="#FFFFFF" transform="translate(488,14)"/>
<path d="M0 0 C6.93 0 13.86 0 21 0 C21 2.31 21 4.62 21 7 C16.71 7 12.42 7 8 7 C8 9.64 8 12.28 8 15 C11.3 15 14.6 15 18 15 C18 16.98 18 18.96 18 21 C14.7 21 11.4 21 8 21 C8 24.63 8 28.26 8 32 C12.62 32 17.24 32 22 32 C22 34.31 22 36.62 22 39 C14.74 39 7.48 39 0 39 C0 26.13 0 13.26 0 0 Z " fill="#FFFFFF" transform="translate(228,15)"/>
<path d="M0 0 C2.64 0 5.28 0 8 0 C8 10.56 8 21.12 8 32 C11.63 32 15.26 32 19 32 C19 34.31 19 36.62 19 39 C12.73 39 6.46 39 0 39 C0 26.13 0 13.26 0 0 Z " fill="#FFFFFF" transform="translate(110,15)"/>
<path d="M0 0 C2.64 0 5.28 0 8 0 C8 12.87 8 25.74 8 39 C5.36 39 2.72 39 0 39 C0 26.13 0 13.26 0 0 Z " fill="#FFFFFF" transform="translate(4,15)"/>
<path d="M0 0 C3 1 3 1 4.1875 3.0625 C4.455625 3.701875 4.72375 4.34125 5 5 C3.68 4.67 2.36 4.34 1 4 C1 10.27 1 16.54 1 23 C-1.31 23 -3.62 23 -6 23 C-6 22.67 -6 22.34 -6 22 C-4.02 22 -2.04 22 0 22 C0 14.74 0 7.48 0 0 Z " fill="#B72222" transform="translate(354,31)"/>
</svg>
